<?xml version="1.0" encoding="UTF-8"?> <svg xmlns="http://www.w3.org/2000/svg" viewBox="0 0 414 176.27"> <defs> <linearGradient id="a" x1="190.99" y1="139.53" x2="167.17" y2="128.82" gradientUnits="userSpaceOnUse"> <stop offset=".02" stop-color="#00a9e0" stop-opacity="0"></stop> <stop offset=".21" stop-color="#0089bf" stop-opacity=".19"></stop> <stop offset=".53" stop-color="#005f95" stop-opacity=".45"></stop> <stop offset=".8" stop-color="#00457a" stop-opacity=".6"></stop> <stop offset="1" stop-color="#003c71" stop-opacity=".66"></stop> </linearGradient> </defs> <path d="M375 25a95 95 0 0 0-12.52-10 53.55 53.55 0 0 1 17.12 39.49c0 25.67-19.19 49.41-30.31 63.33-11.58 14.52-24.57 29.9-24.57 29.9h54.76c14.44-15.65 23.57-35.44 23.57-59.39 0-26-10.92-47.15-28.07-63.32M139.41 73.35h-29L85 103.18h54.18A53.3 53.3 0 1 1 117 43.59h33.39a87.75 87.75 0 0 0-10.93 29.76M324.8 91.84l.91-1.12 1.08-1.36c.49-.6 1-1.19 1.42-1.77l.66-.82c3-3.77 5.61-7.06 7.77-9.84l.1-.13c.51-.66 1-1.29 1.46-1.88l.12-.16 1.36-1.76a24.7 24.7 0 0 0 5.44-15.11 24.4 24.4 0 0 0-11-20 20.8 20.8 0 0 0-2.85-1.59c-.4-.18-.84-.3-1.26-.46a19.44 19.44 0 0 0-1.85-.68c-.47-.14-1-.21-1.45-.31s-1.21-.3-1.83-.39-1-.07-1.51-.11-1.25-.13-1.88-.13h-.06c-.62 0-1.24.07-1.86.12s-1 0-1.45.1c-.67.09-1.32.26-2 .41-.45.09-.91.15-1.35.28a19.88 19.88 0 0 0-2.08.75c-.37.14-.75.24-1.11.4a21.55 21.55 0 0 0-3 1.63 23.94 23.94 0 0 0-10.94 19.83h-28a53.32 53.32 0 1 1-6.08-7.22 58.29 58.29 0 0 1 2.75-13.26 64.11 64.11 0 0 1 10-18.17A58 58 0 0 1 305 0h-78.85a89.35 89.35 0 0 0-69.1 33.81 88 88 0 1 0 0 109 87.84 87.84 0 0 0 69.08 33.51h28c29.21-33.88 53.5-63.15 69.46-82.93.42-.51.81-1 1.21-1.5" fill="#0096e6"></path> <path d="M157.09 142.82a87.82 87.82 0 0 0 37.11 27.44c4.56-9.53 7-23 8.25-34.24a53.4 53.4 0 0 1-27.59-33.15 87.7 87.7 0 0 1-17.77 39.95" fill="url(#a)"></path> <path d="M401.48 176.27A12.62 12.62 0 1 1 414 163.65a12.57 12.57 0 0 1-12.52 12.62zm0-22.9a10.28 10.28 0 1 0 10 10.28 10.08 10.08 0 0 0-10-10.28zm2.62 17.08l-2.76-5.45h-1.73v5.41h-2.5v-13.6h5.09a4.22 4.22 0 0 1 4.36 4.19 3.82 3.82 0 0 1-2.67 3.7l3 5.75zm-2.21-11.51h-2.28v4.12h2.28a2.07 2.07 0 1 0 0-4.12z" fill="#00a9e0"></path> </svg> 